<mxfile host="app.diagrams.net" modified="2024-06-07T19:08:45.381Z" agent="Mozilla/5.0 (Macintosh; Intel Mac OS X 10_15_7) AppleWebKit/605.1.15 (KHTML, like Gecko) Version/17.4.1 Safari/605.1.15" version="24.5.2" etag="X2fskNdk1n2nW69bUdo8" type="github">
  <diagram name="Page-1" id="_X1YonpRgR9UE--a8njp">
    <mxGraphModel>
      <root>
        <mxCell id="0" />
        <mxCell id="1" parent="0" />
      </root>
    </mxGraphModel>
  </diagram>
</mxfile>
